<svg width="138" height="180" viewBox="0 0 138 180" fill="none" xmlns="http://www.w3.org/2000/svg">
<path fill-rule="evenodd" clip-rule="evenodd" d="M137.11 117.307C137.11 82.6818 109.04 54.611 74.4162 54.6102C73.5091 54.6102 72.6084 54.6295 71.714 54.6675C71.036 54.6961 70.3612 54.7357 69.6896 54.7858C64.8294 65.2569 54.2208 72.5189 41.919 72.5189C38.526 72.5189 35.2604 71.9661 32.208 70.9455C19.6197 82.4127 11.7197 98.9374 11.7197 117.307C11.7197 151.932 39.7896 180 74.4162 180C109.04 179.999 137.11 151.931 137.11 117.307ZM23.7065 117.307C23.7065 89.3012 46.41 66.5969 74.4162 66.5969C102.419 66.5977 125.123 89.3018 125.123 117.307C125.123 145.311 102.419 168.012 74.4162 168.013C46.41 168.013 23.7065 145.312 23.7065 117.307Z" fill="#CD161A"/>
<path d="M41.9186 0C65.0699 0 83.8372 18.7697 83.8372 41.9218C83.8367 65.0735 65.0696 83.8404 41.9186 83.8404C18.7677 83.8404 0.00050128 65.0735 0 41.9218C0 18.7697 18.7674 4.19987e-05 41.9186 0ZM41.9186 11.3215C25.0199 11.3215 11.3215 25.0231 11.3215 41.9218C11.322 55.4256 20.0697 66.8861 32.2076 70.9456C35.2588 71.966 38.5241 72.5189 41.9186 72.5189C54.2219 72.5186 64.8304 65.2572 69.6893 54.7858C71.5039 50.8753 72.5156 46.5165 72.5157 41.9218C72.5157 25.0233 58.817 11.322 41.9186 11.3215Z" fill="black"/>
</svg>
